# Blender v2.79 (sub 7) OBJ File: ''
# www.blender.org
mtllib M_Grey_Broken_Wall_01.mtl
o Mesh1_Grey_Broken_Wall_Model
v 0.269789 2.200000 1.502049
v 0.269789 2.200000 1.002049
v -0.230211 2.200000 1.002049
v -0.230211 2.200000 1.502049
v 0.269789 0.000000 1.502049
v 0.269789 0.000000 1.002049
v -0.230211 0.000000 1.002049
v -0.130211 0.000000 1.002049
v 0.169789 0.000000 1.002049
v -0.230211 0.000000 1.502049
v 0.169789 2.030640 1.002049
v -0.130211 2.030640 1.002049
v 0.169789 1.706010 0.621759
v -0.130211 1.706010 0.621759
v 0.169789 0.000000 -0.997951
v 0.169789 1.100000 -0.997951
v 0.169789 1.356320 -0.731421
v 0.169789 1.356320 -0.431421
v 0.169789 1.152950 -0.210871
v 0.169789 1.152950 0.089129
v 0.169789 1.706010 0.321759
v 0.269789 0.000000 -0.997951
v 0.269789 1.100000 -0.997951
v 0.269789 0.000000 -1.497951
v 0.269789 1.100000 -1.497951
v -0.230211 0.000000 -1.497951
v -0.230211 1.100000 -1.497951
v -0.130211 0.000000 -0.997951
v -0.230211 0.000000 -0.997951
v -0.130211 1.706010 0.321759
v -0.130211 1.152950 0.089129
v -0.130211 1.152950 -0.210871
v -0.130211 1.356320 -0.431421
v -0.130211 1.356320 -0.731421
v -0.130211 1.100000 -0.997951
v -0.230211 1.100000 -0.997951
vt 0.227273 0.000000
vt 0.227273 0.227273
vt 0.000000 0.227273
vt 0.000000 0.000000
vt 0.000000 0.000000
vt 0.227273 0.000000
vt 0.227273 1.000000
vt 0.000000 1.000000
vt 0.000000 0.227273
vt -0.045454 0.227273
vt -0.181818 0.227273
vt -0.227273 0.227273
vt -0.227273 0.000000
vt 0.000000 0.000000
vt -0.181818 0.923017
vt -0.045454 0.923017
vt -0.045454 0.000000
vt 0.000000 0.000000
vt 0.000000 1.000000
vt -0.227273 1.000000
vt -0.227273 0.000000
vt -0.181818 0.000000
vt 0.227273 0.000000
vt 0.227273 0.500000
vt 0.181818 0.500000
vt 0.181818 0.000000
vt 1.363640 0.000000
vt 1.363640 0.500000
vt 1.136360 0.500000
vt 1.136360 0.000000
vt -0.227273 0.000000
vt 0.000000 0.000000
vt 0.000000 0.500000
vt -0.227273 0.500000
vt -0.227273 1.136360
vt -0.181818 1.136360
vt -0.045454 1.136360
vt 0.000000 1.136360
vt 0.000000 1.363640
vt -0.227273 1.363640
vt -0.000000 1.363640
vt 0.000000 1.136360
vt 0.045454 1.136360
vt 0.181818 1.136360
vt 0.227273 1.136360
vt 0.227273 1.363640
vt -1.363640 0.000000
vt -1.136360 0.000000
vt -1.136360 0.500000
vt -1.363640 0.500000
vt 0.000000 0.500000
vt 0.000000 0.000000
vt 0.045454 0.000000
vt 0.045454 0.500000
vt 0.000000 1.000000
vt -0.227273 1.000000
vt -0.227273 0.000000
vt 0.227273 0.000000
vt 0.227273 1.000000
vt -0.181818 0.426405
vt -0.181818 0.199132
vt -0.045454 0.199132
vt -0.045454 0.426405
vt 1.136360 0.000000
vt 1.136360 0.500000
vt 1.015210 0.616511
vt 0.878848 0.616511
vt 0.778602 0.524068
vt 0.642238 0.524068
vt 0.536495 0.775461
vt 0.400132 0.775461
vt 0.227273 0.923017
vt 0.227273 0.000000
vt -1.136360 0.000000
vt -0.227273 0.000000
vt -0.227273 0.923017
vt -0.400132 0.775461
vt -0.536495 0.775461
vt -0.642238 0.524068
vt -0.778602 0.524068
vt -0.878848 0.616511
vt -1.015210 0.616511
vt -1.136360 0.500000
vt 0.181818 0.400132
vt 0.181818 0.536495
vt 0.045454 0.536495
vt 0.045454 0.400132
vt -0.181818 0.506788
vt -0.181818 0.234061
vt -0.045454 0.234061
vt -0.045454 0.506788
vt 0.181818 0.642238
vt 0.181818 0.778602
vt 0.045454 0.778602
vt 0.045454 0.642238
vt 0.181818 0.927655
vt 0.181818 1.064020
vt 0.045454 1.064020
vt 0.045454 0.927655
vt 0.181818 0.878848
vt 0.181818 1.015210
vt 0.045454 1.015210
vt 0.045454 0.878848
vt -0.181818 -0.304396
vt -0.181818 -0.472481
vt -0.045454 -0.472481
vt -0.045454 -0.304396
vn 0.0000 1.0000 0.0000
vn 1.0000 0.0000 0.0000
vn 0.0000 -1.0000 -0.0000
vn 0.0000 0.0000 -1.0000
vn 0.0000 -0.0000 1.0000
vn -1.0000 0.0000 0.0000
vn 0.0000 0.7606 -0.6493
vn 0.0000 0.3877 -0.9218
vn 0.0000 0.7352 0.6779
vn 0.0000 0.7208 -0.6932
usemtl Light_Stone.002
s 1
f 1/1/1 2/2/1 3/3/1 4/4/1
f 5/5/2 6/6/2 2/7/2 1/8/2
f 7/9/3 8/10/3 9/11/3 6/12/3 5/13/3 10/14/3
f 11/15/4 12/16/4 8/17/4 7/18/4 3/19/4 2/20/4 6/21/4 9/22/4
f 22/23/5 23/24/5 16/25/5 15/26/5
f 24/27/2 25/28/2 23/29/2 22/30/2
f 24/31/4 26/32/4 27/33/4 25/34/4
f 22/35/3 15/36/3 28/37/3 29/38/3 26/39/3 24/40/3
f 27/41/1 36/42/1 35/43/1 16/44/1 23/45/1 25/46/1
f 26/47/6 29/48/6 36/49/6 27/50/6
f 36/51/5 29/52/5 28/53/5 35/54/5
f 4/55/6 3/56/6 7/57/6 10/14/6
f 10/14/5 5/58/5 1/59/5 4/55/5
usemtl Dark_Stone.002
f 11/60/7 13/61/7 14/62/7 12/63/7
f 15/64/2 16/65/2 17/66/2 18/67/2 19/68/2 20/69/2 21/70/2 13/71/2 11/72/2 9/73/2
f 8/10/3 28/37/3 15/36/3 9/11/3
f 28/74/6 8/75/6 12/76/6 14/77/6 30/78/6 31/79/6 32/80/6 33/81/6 34/82/6 35/83/6
f 13/84/1 21/85/1 30/86/1 14/87/1
f 21/88/8 20/89/8 31/90/8 30/91/8
f 20/92/1 19/93/1 32/94/1 31/95/1
f 19/96/9 18/97/9 33/98/9 32/99/9
f 18/100/1 17/101/1 34/102/1 33/103/1
f 17/104/10 16/105/10 35/106/10 34/107/10
