# Blender v2.79 (sub 7) OBJ File: ''
# www.blender.org
mtllib M_Grey_Border_Wall_01.mtl
o Mesh1_Grey_Border_Wall_Model
v 0.476115 2.199606 1.499198
v 0.476115 2.199606 0.999198
v 0.376115 2.199606 0.999198
v 0.076115 2.199606 0.999198
v -0.023885 2.199606 0.999198
v -0.023885 2.199606 1.499198
v 0.476115 -0.000394 1.499198
v 0.476115 -0.000394 -1.500802
v 0.476115 2.199606 -1.500802
v 0.476115 2.199606 -1.000802
v 0.476115 0.699800 -1.000802
v 0.476115 0.699800 0.999198
v -0.023885 -0.000394 1.499198
v -0.023885 -0.000394 -1.500802
v -0.023885 2.199606 -1.500802
v -0.023885 0.699800 0.999198
v -0.023885 0.699800 -1.000802
v -0.023885 2.199606 -1.000802
v 0.076115 2.199606 -1.000802
v 0.376115 2.199606 -1.000802
v 0.076115 0.699800 -1.000802
v 0.076115 0.699800 0.999198
v 0.376115 0.699800 0.999198
v 0.376115 0.699800 -1.000802
vt 0.227273 0.000000
vt 0.227273 0.227273
vt 0.181818 0.227273
vt 0.045454 0.227273
vt 0.000000 0.227273
vt 0.000000 0.000000
vt 0.000000 1.000000
vt 0.000000 0.000000
vt 1.363640 0.000000
vt 1.363640 1.000000
vt 1.136360 1.000000
vt 1.136360 0.318270
vt 0.227273 0.318270
vt 0.227273 1.000000
vt 0.000000 0.000000
vt 0.227273 0.000000
vt 0.227273 1.000000
vt 0.000000 1.000000
vt -0.227273 1.363640
vt -0.227273 0.000000
vt 0.000000 1.363640
vt -1.363640 1.000000
vt -1.363640 0.000000
vt -0.227273 1.000000
vt -0.227273 0.318270
vt -1.136360 0.318270
vt -1.136360 1.000000
vt -0.227273 0.000000
vt 0.000000 0.000000
vt 0.000000 1.000000
vt -0.227273 1.000000
vt 0.000000 1.363640
vt 0.000000 1.136360
vt 0.045454 1.136360
vt 0.181818 1.136360
vt 0.227273 1.136360
vt 0.227273 1.363640
vt 0.000000 1.000000
vt 0.000000 0.318270
vt 0.045454 0.318270
vt 0.045454 1.000000
vt 0.000000 0.227273
vt 0.045454 0.227273
vt 0.045454 1.136360
vt 0.000000 1.136360
vt -0.045454 1.000000
vt -0.045454 0.318270
vt 0.000000 0.318270
vt 0.000000 1.000000
vt -0.227273 1.000000
vt -0.227273 0.318270
vt -0.181818 0.318270
vt -0.181818 1.000000
vt 0.227273 1.136360
vt 0.181818 1.136360
vt 0.181818 0.227273
vt 0.227273 0.227273
vt 0.181818 1.000000
vt 0.181818 0.318270
vt 0.227273 0.318270
vt 0.227273 1.000000
vt -1.136360 1.000000
vt -1.136360 0.318270
vt -0.227273 0.318270
vt -0.227273 1.000000
vt 0.227273 1.000000
vt 0.227273 0.318270
vt 1.136360 0.318270
vt 1.136360 1.000000
vn 0.0000 1.0000 -0.0000
vn 1.0000 0.0000 0.0000
vn 0.0000 -0.0000 1.0000
vn 0.0000 -1.0000 -0.0000
vn -1.0000 -0.0000 0.0000
vn 0.0000 0.0000 -1.0000
usemtl Light_Stone.001
s 1
f 1/1/1 2/2/1 3/3/1 4/4/1 5/5/1 6/6/1
f 1/7/2 7/8/2 8/9/2 9/10/2 10/11/2 11/12/2 12/13/2 2/14/2
f 13/15/3 7/16/3 1/17/3 6/18/3
f 8/19/4 7/20/4 13/15/4 14/21/4
f 15/22/5 14/23/5 13/15/5 6/18/5 5/24/5 16/25/5 17/26/5 18/27/5
f 8/28/6 14/29/6 15/30/6 9/31/6
f 15/32/1 18/33/1 19/34/1 20/35/1 10/36/1 9/37/1
f 18/38/3 17/39/3 21/40/3 19/41/3
f 16/42/1 22/43/1 21/44/1 17/45/1
f 4/46/6 22/47/6 16/48/6 5/49/6
f 2/50/6 12/51/6 23/52/6 3/53/6
f 11/54/1 24/55/1 23/56/1 12/57/1
f 20/58/3 24/59/3 11/60/3 10/61/3
usemtl Dark_Stone.001
f 19/62/5 21/63/5 22/64/5 4/65/5
f 20/35/1 19/34/1 4/4/1 3/3/1
f 3/66/2 23/67/2 24/68/2 20/69/2
