# Blender v2.79 (sub 7) OBJ File: ''
# www.blender.org
mtllib M_Grey_Arch_01.mtl
o Mesh1_Grey_Arch_Model
v 0.500000 0.000000 -3.000000
v 0.000000 0.000000 -3.000000
v 0.000000 2.200000 -3.000000
v 0.500000 2.200000 -3.000000
v 0.500000 0.000000 -2.500000
v 0.400000 0.000000 -2.500000
v 0.100000 0.000000 -2.500000
v 0.000000 0.000000 -2.500000
v 0.500000 2.200000 -2.500000
v 0.400000 2.200000 -2.500000
v 0.000000 2.200000 -2.500000
v 0.100000 2.200000 -2.500000
v 0.100000 0.000000 -2.490000
v 0.100000 0.761540 -2.338520
v 0.100000 1.407140 -1.907140
v 0.100000 1.838520 -1.261540
v 0.100000 1.990000 -0.500000
v 0.100000 1.990000 0.000000
v 0.100000 2.200000 0.000000
v 0.400000 0.000000 -2.490000
v 0.400000 0.761540 -2.338520
v 0.400000 2.200000 0.000000
v 0.400000 1.990000 0.000000
v 0.400000 1.990000 -0.500000
v 0.400000 1.838520 -1.261540
v 0.400000 1.407140 -1.907140
vt -0.227273 0.000000
vt 0.000000 0.000000
vt 0.000000 1.000000
vt -0.227273 1.000000
vt -0.227273 1.136360
vt -0.181818 1.136360
vt -0.045454 1.136360
vt 0.000000 1.136360
vt 0.000000 1.363640
vt -0.227273 1.363640
vt 0.227273 0.000000
vt 0.227273 1.000000
vt 0.181818 1.000000
vt 0.181818 0.000000
vt 1.363640 1.000000
vt 1.136360 1.000000
vt 1.136360 0.000000
vt 1.363640 0.000000
vt 0.000000 1.363640
vt 0.000000 1.136360
vt 0.045454 1.136360
vt 0.181818 1.136360
vt 0.227273 1.136360
vt 0.227273 1.363640
vt -1.363640 0.000000
vt -1.136360 0.000000
vt -1.136360 1.000000
vt -1.363640 1.000000
vt 0.000000 1.000000
vt 0.000000 0.000000
vt 0.045454 0.000000
vt 0.045454 1.000000
vt 0.181818 1.000000
vt 0.045454 1.000000
vt 0.045454 0.904545
vt 0.181818 0.904545
vt -0.045454 0.227273
vt -0.181818 0.227273
vt -0.181818 -0.000000
vt -0.045454 -0.000000
vt -1.136360 0.000000
vt -1.131820 0.000000
vt -1.062960 0.346155
vt -0.866883 0.639610
vt -0.573427 0.835691
vt -0.227273 0.904545
vt 0.000000 0.904545
vt 0.000000 1.000000
vt -1.136360 1.000000
vt -0.181818 1.131820
vt -0.045454 1.131820
vt 0.181818 -0.220807
vt 0.181818 0.132129
vt 0.045454 0.132129
vt 0.045454 -0.220807
vt 1.136360 1.000000
vt -0.000000 1.000000
vt -0.000000 0.904545
vt 0.227273 0.904545
vt 0.573427 0.835691
vt 0.866883 0.639610
vt 1.062960 0.346155
vt 1.131820 0.000000
vt 1.136360 0.000000
vt 0.045454 -0.000000
vt 0.181818 -0.000000
vt 0.181818 -0.399374
vt 0.181818 -0.046438
vt 0.045454 -0.046438
vt 0.045454 -0.399374
vt 0.181818 -0.365438
vt 0.181818 -0.012502
vt 0.045454 -0.012502
vt 0.045454 -0.365438
vt 0.181818 -0.302734
vt 0.181818 0.050202
vt 0.045454 0.050202
vt 0.045454 -0.302734
vn 0.0000 0.0000 -1.0000
vn 0.0000 -1.0000 -0.0000
vn 0.0000 0.0000 1.0000
vn 1.0000 0.0000 0.0000
vn 0.0000 1.0000 0.0000
vn -1.0000 0.0000 0.0000
vn 0.0000 -0.9952 0.0980
vn 0.0000 -0.1951 0.9808
vn 0.0000 -0.9808 0.1951
vn 0.0000 -0.8315 0.5556
vn 0.0000 -0.5556 0.8315
usemtl Light_Stone
s 1
f 1/1/1 2/2/1 3/3/1 4/4/1
f 5/5/2 6/6/2 7/7/2 8/8/2 2/9/2 1/10/2
f 5/11/3 9/12/3 10/13/3 6/14/3
f 4/15/4 9/16/4 5/17/4 1/18/4
f 3/19/5 11/20/5 12/21/5 10/22/5 9/23/5 4/24/5
f 2/25/6 8/26/6 11/27/6 3/28/6
f 11/29/3 8/30/3 7/31/3 12/32/3
f 22/33/3 19/34/3 18/35/3 23/36/3
f 17/37/7 24/38/7 23/39/2 18/40/2
usemtl Dark_Stone
f 7/41/6 13/42/6 14/43/6 15/44/6 16/45/6 17/46/6 18/47/6 19/48/6 12/49/6
f 20/50/2 13/51/2 7/7/2 6/6/2
f 20/52/8 21/53/8 14/54/8 13/55/8
f 10/56/4 22/57/4 23/58/4 24/59/4 25/60/4 26/61/4 21/62/4 20/63/4 6/64/4
f 10/22/5 12/21/5 19/65/5 22/66/5
f 25/67/9 24/68/7 17/69/7 16/70/9
f 26/71/10 25/72/10 16/73/10 15/74/10
f 21/75/11 26/76/11 15/77/11 14/78/11
